<svg xmlns="http://www.w3.org/2000/svg" xml:space="preserve" viewBox="0 0 512 512" id="calculator">
  <path fill="#eceff1" fill-rule="evenodd" d="M100.16 16h311.68c15.699 0 28.543 12.844 28.543 28.543v422.914c0 15.699-12.844 28.543-28.543 28.543H100.16c-15.699 0-28.543-12.844-28.543-28.543V44.543C71.617 28.844 84.46 16 100.16 16z" clip-rule="evenodd"></path>
  <path fill="#d1d1d6" fill-rule="evenodd" d="M419.367 17.016c12.077 3.324 21.016 14.431 21.016 27.527v422.914c0 15.699-12.844 28.543-28.543 28.543H100.16c-13.096 0-24.204-8.939-27.527-21.016 2.4.661 4.924 1.016 7.527 1.016h311.681c15.699 0 28.543-12.844 28.543-28.543V24.542a28.427 28.427 0 0 0-1.017-7.526z" clip-rule="evenodd"></path>
  <path fill="#d1d1d6" fill-rule="evenodd" d="M346.083 264.628h37.929c5.803 0 10.536 4.733 10.536 10.536v16.698c0 5.803-4.733 10.536-10.536 10.536h-37.929c-5.803 0-10.536-4.733-10.536-10.536v-16.698c0-5.803 4.733-10.536 10.536-10.536zm-218.096-78.373h37.929c5.803 0 10.536 4.733 10.536 10.536v16.698c0 5.803-4.733 10.536-10.536 10.536h-37.929c-5.803 0-10.536-4.733-10.536-10.536v-16.698c0-5.803 4.733-10.536 10.536-10.536zm0 78.373h37.929c5.803 0 10.536 4.733 10.536 10.536v16.698c0 5.803-4.733 10.536-10.536 10.536h-37.929c-5.803 0-10.536-4.733-10.536-10.536v-16.698c0-5.803 4.733-10.536 10.536-10.536zm0 78.373h37.929c5.803 0 10.536 4.733 10.536 10.536v16.698c0 5.803-4.733 10.536-10.536 10.536h-37.929c-5.803 0-10.536-4.733-10.536-10.536v-16.698c0-5.803 4.733-10.536 10.536-10.536zm0 78.373h37.929c5.803 0 10.536 4.733 10.536 10.536v16.698c0 5.803-4.733 10.536-10.536 10.536h-37.929c-5.803 0-10.536-4.733-10.536-10.536V431.91c0-5.804 4.733-10.536 10.536-10.536zm109.048 0h37.929c5.803 0 10.536 4.733 10.536 10.536v16.698c0 5.803-4.733 10.536-10.536 10.536h-37.929c-5.803 0-10.536-4.733-10.536-10.536V431.91c0-5.804 4.733-10.536 10.536-10.536zm0-78.373h37.929c5.803 0 10.536 4.733 10.536 10.536v16.698c0 5.803-4.733 10.536-10.536 10.536h-37.929c-5.803 0-10.536-4.733-10.536-10.536v-16.698c0-5.803 4.733-10.536 10.536-10.536zm0-78.373h37.929c5.803 0 10.536 4.733 10.536 10.536v16.698c0 5.803-4.733 10.536-10.536 10.536h-37.929c-5.803 0-10.536-4.733-10.536-10.536v-16.698c0-5.803 4.733-10.536 10.536-10.536zm0-78.373h37.929c5.803 0 10.536 4.733 10.536 10.536v16.698c0 5.803-4.733 10.536-10.536 10.536h-37.929c-5.803 0-10.536-4.733-10.536-10.536v-16.698c0-5.803 4.733-10.536 10.536-10.536zm109.048 0h37.929c5.803 0 10.536 4.733 10.536 10.536v16.698c0 5.803-4.733 10.536-10.536 10.536h-37.929c-5.803 0-10.536-4.733-10.536-10.536v-16.698c0-5.803 4.733-10.536 10.536-10.536z" clip-rule="evenodd"></path>
  <path fill="#b1b1b5" fill-rule="evenodd" d="M384.535 264.641c5.562.274 10.013 4.895 10.013 10.523v16.698c0 5.803-4.733 10.536-10.536 10.536h-37.929c-5.628 0-10.249-4.451-10.523-10.013.173.009.348.013.523.013h37.929c5.803 0 10.536-4.733 10.536-10.536v-16.698c0-.175-.004-.35-.013-.523zm-109.048 0c5.562.274 10.013 4.895 10.013 10.523v16.698c0 5.803-4.733 10.536-10.536 10.536h-37.929c-5.628 0-10.249-4.452-10.523-10.013.173.009.347.013.522.013h37.929c5.803 0 10.536-4.733 10.536-10.536v-16.698c.001-.175-.004-.35-.012-.523zm0 78.373c5.562.274 10.013 4.895 10.013 10.523v16.698c0 5.803-4.733 10.536-10.536 10.536h-37.929c-5.628 0-10.249-4.452-10.523-10.013.173.009.347.013.522.013h37.929c5.803 0 10.536-4.733 10.536-10.536v-16.698c.001-.176-.004-.35-.012-.523zm0 78.373c5.562.274 10.013 4.895 10.013 10.523v16.698c0 5.803-4.733 10.536-10.536 10.536h-37.929c-5.628 0-10.249-4.452-10.523-10.013.173.009.347.013.522.013h37.929c5.803 0 10.536-4.733 10.536-10.536V421.91c.001-.176-.004-.35-.012-.523zm-109.048 0c5.562.274 10.013 4.895 10.013 10.523v16.698c0 5.803-4.733 10.536-10.536 10.536h-37.929c-5.628 0-10.249-4.451-10.523-10.013.173.009.348.013.523.013h37.929c5.803 0 10.536-4.733 10.536-10.536V421.91c0-.176-.005-.35-.013-.523zm0-78.373c5.562.274 10.013 4.895 10.013 10.523v16.698c0 5.803-4.733 10.536-10.536 10.536h-37.929c-5.628 0-10.249-4.451-10.523-10.013.173.009.348.013.523.013h37.929c5.803 0 10.536-4.733 10.536-10.536v-16.698c0-.176-.005-.35-.013-.523zm0-78.373c5.562.274 10.013 4.895 10.013 10.523v16.698c0 5.803-4.733 10.536-10.536 10.536h-37.929c-5.628 0-10.249-4.451-10.523-10.013.173.009.348.013.523.013h37.929c5.803 0 10.536-4.733 10.536-10.536v-16.698c0-.175-.005-.35-.013-.523zm0-78.372c5.562.274 10.013 4.895 10.013 10.523v16.698c0 5.803-4.733 10.536-10.536 10.536h-37.929c-5.628 0-10.249-4.451-10.523-10.013.173.008.348.013.523.013h37.929c5.803 0 10.536-4.733 10.536-10.536v-16.698c0-.176-.005-.351-.013-.523zm218.096 0c5.562.274 10.013 4.895 10.013 10.523v16.698c0 5.803-4.733 10.536-10.536 10.536h-37.929c-5.628 0-10.249-4.451-10.523-10.013.173.008.348.013.523.013h37.929c5.803 0 10.536-4.733 10.536-10.536v-16.698c0-.176-.004-.351-.013-.523zm-109.048 0c5.562.274 10.013 4.895 10.013 10.523v16.698c0 5.803-4.733 10.536-10.536 10.536h-37.929c-5.628 0-10.249-4.452-10.523-10.013.173.008.347.013.522.013h37.929c5.803 0 10.536-4.733 10.536-10.536v-16.698c.001-.176-.004-.35-.012-.523z" clip-rule="evenodd"></path>
  <path fill="#fe646f" fill-rule="evenodd" d="M346.083 343h37.929c5.803 0 10.536 4.733 10.536 10.536v95.071c0 5.803-4.733 10.536-10.536 10.536h-37.929c-5.803 0-10.536-4.733-10.536-10.536v-95.071c0-5.803 4.733-10.536 10.536-10.536z" clip-rule="evenodd"></path>
  <path fill="#fd4755" fill-rule="evenodd" d="M384.535 343.013c5.562.274 10.013 4.895 10.013 10.523v95.071c0 5.803-4.733 10.536-10.536 10.536h-37.929c-5.628 0-10.249-4.451-10.523-10.013.173.009.348.013.523.013h37.929c5.803 0 10.536-4.733 10.536-10.536v-95.071c0-.175-.004-.35-.013-.523z" clip-rule="evenodd"></path>
  <path fill="#b7e546" fill-rule="evenodd" d="M126.934 53.643h257.079c5.803 0 10.536 4.733 10.536 10.536v71.34c0 5.803-4.733 10.536-10.536 10.536H126.934c-5.803 0-10.536-4.733-10.536-10.536v-71.34c0-5.803 4.733-10.536 10.536-10.536z" clip-rule="evenodd"></path>
  <path fill="#abd641" fill-rule="evenodd" d="M126.934 53.643h9.465v66.607c0 5.803 4.733 10.536 10.536 10.536h247.614v4.732c0 5.803-4.733 10.536-10.536 10.536H126.934c-5.803 0-10.536-4.733-10.536-10.536v-71.34c0-5.802 4.733-10.535 10.536-10.535z" clip-rule="evenodd"></path>
  <path fill-rule="evenodd" d="M355.72 113.055h-10.33V86.644h10.33v26.411zm1.698-42.407h-13.727c-7.878 0-14.293 6.42-14.293 14.321v29.765c0 7.896 6.415 14.321 14.293 14.321h13.727c7.877 0 14.293-6.425 14.293-14.321V84.969c0-7.901-6.416-14.321-14.293-14.321zM277.51 291.862c0 1.377-1.179 2.538-2.547 2.538h-37.925c-1.368 0-2.547-1.16-2.547-2.538v-16.694c0-1.378 1.179-2.538 2.547-2.538h37.925c1.368 0 2.547 1.16 2.547 2.538v16.694zm-2.547-35.232h-37.925c-10.236 0-18.538 8.316-18.538 18.538v16.694c0 10.222 8.302 18.538 18.538 18.538h37.925c10.236 0 18.538-8.316 18.538-18.538v-16.694c0-10.222-8.302-18.538-18.538-18.538zm2.547 113.602c0 1.377-1.179 2.538-2.547 2.538h-37.925c-1.368 0-2.547-1.16-2.547-2.538v-16.689c0-1.382 1.179-2.542 2.547-2.542h37.925c1.368 0 2.547 1.16 2.547 2.542v16.689zM274.963 335h-37.925c-10.236 0-18.538 8.321-18.538 18.543v16.689c0 10.231 8.302 18.538 18.538 18.538h37.925c10.236 0 18.538-8.307 18.538-18.538v-16.689c0-10.222-8.302-18.543-18.538-18.543zM386.57 213.492c0 1.373-1.179 2.533-2.547 2.533h-37.926c-1.368 0-2.547-1.16-2.547-2.533v-16.699c0-1.377 1.179-2.538 2.547-2.538h37.926c1.368 0 2.547 1.161 2.547 2.538v16.699zm-2.548-35.232h-37.926c-10.236 0-18.538 8.311-18.538 18.533v16.699c0 10.217 8.302 18.533 18.538 18.533h37.926c10.189 0 18.538-8.316 18.538-18.533v-16.699c0-10.222-8.349-18.533-18.538-18.533zM277.51 448.611c0 1.368-1.179 2.533-2.547 2.533h-37.925c-1.368 0-2.547-1.165-2.547-2.533v-16.698c0-1.373 1.179-2.543 2.547-2.543h37.925c1.368 0 2.547 1.17 2.547 2.543v16.698zm-2.547-35.241h-37.925c-10.236 0-18.538 8.321-18.538 18.543v16.698c0 10.222 8.302 18.529 18.538 18.529h37.925c10.236 0 18.538-8.307 18.538-18.529v-16.698c0-10.222-8.302-18.543-18.538-18.543zm2.547-199.878c0 1.373-1.179 2.533-2.547 2.533h-37.925c-1.368 0-2.547-1.16-2.547-2.533v-16.699c0-1.377 1.179-2.538 2.547-2.538h37.925c1.368 0 2.547 1.161 2.547 2.538v16.699zm-2.547-35.232h-37.925c-10.236 0-18.538 8.311-18.538 18.533v16.699c0 10.217 8.302 18.533 18.538 18.533h37.925c10.236 0 18.538-8.316 18.538-18.533v-16.699c0-10.222-8.302-18.533-18.538-18.533zM386.57 448.611c0 1.368-1.179 2.533-2.547 2.533h-37.926c-1.368 0-2.547-1.165-2.547-2.533v-95.069c0-1.382 1.179-2.542 2.547-2.542h37.926c1.368 0 2.547 1.16 2.547 2.542v95.069zM384.022 335h-37.926c-10.236 0-18.538 8.321-18.538 18.543v95.069c0 10.222 8.302 18.529 18.538 18.529h37.926c10.189 0 18.538-8.307 18.538-18.529v-95.069c0-10.222-8.349-18.543-18.538-18.543zm2.548-43.138c0 1.377-1.179 2.538-2.547 2.538h-37.926c-1.368 0-2.547-1.16-2.547-2.538v-16.694c0-1.378 1.179-2.538 2.547-2.538h37.926c1.368 0 2.547 1.16 2.547 2.538v16.694zm-2.548-35.232h-37.926c-10.236 0-18.538 8.316-18.538 18.538v16.694c0 10.222 8.302 18.538 18.538 18.538h37.926c10.189 0 18.538-8.316 18.538-18.538v-16.694c0-10.222-8.349-18.538-18.538-18.538zM168.45 370.232c0 1.377-1.179 2.538-2.547 2.538h-37.925c-1.368 0-2.547-1.16-2.547-2.538v-16.689c0-1.382 1.179-2.542 2.547-2.542h37.925c1.368 0 2.547 1.16 2.547 2.542v16.689zM165.903 335h-37.925c-10.189 0-18.538 8.321-18.538 18.543v16.689c0 10.231 8.349 18.538 18.538 18.538h37.925c10.236 0 18.538-8.307 18.538-18.538v-16.689c0-10.222-8.302-18.543-18.538-18.543zm2.547 113.611c0 1.368-1.179 2.533-2.547 2.533h-37.925c-1.368 0-2.547-1.165-2.547-2.533v-16.698c0-1.373 1.179-2.543 2.547-2.543h37.925c1.368 0 2.547 1.17 2.547 2.543v16.698zm-2.547-35.241h-37.925c-10.189 0-18.538 8.321-18.538 18.543v16.698c0 10.222 8.349 18.529 18.538 18.529h37.925c10.236 0 18.538-8.307 18.538-18.529v-16.698c0-10.222-8.302-18.543-18.538-18.543zm2.547-121.508c0 1.377-1.179 2.538-2.547 2.538h-37.925c-1.368 0-2.547-1.16-2.547-2.538v-16.694c0-1.378 1.179-2.538 2.547-2.538h37.925c1.368 0 2.547 1.16 2.547 2.538v16.694zm-2.547-35.232h-37.925c-10.189 0-18.538 8.316-18.538 18.538v16.694c0 10.222 8.349 18.538 18.538 18.538h37.925c10.236 0 18.538-8.316 18.538-18.538v-16.694c0-10.222-8.302-18.538-18.538-18.538zm2.547-43.138c0 1.373-1.179 2.533-2.547 2.533h-37.925c-1.368 0-2.547-1.16-2.547-2.533v-16.699c0-1.377 1.179-2.538 2.547-2.538h37.925c1.368 0 2.547 1.161 2.547 2.538v16.699zm-2.547-35.232h-37.925c-10.189 0-18.538 8.311-18.538 18.533v16.699c0 10.217 8.349 18.533 18.538 18.533h37.925c10.236 0 18.538-8.316 18.538-18.533v-16.699c0-10.222-8.302-18.533-18.538-18.533zm220.667-42.742V64.181c0-1.373-1.179-2.538-2.547-2.538H126.94c-1.368 0-2.547 1.165-2.547 2.538v71.337c0 1.377 1.179 2.538 2.547 2.538h257.082c1.368 0 2.548-1.161 2.548-2.538zm-2.548-89.875H126.94c-10.236 0-18.538 8.316-18.538 18.538v71.337c0 10.222 8.302 18.538 18.538 18.538h257.082c10.189 0 18.538-8.316 18.538-18.538V64.181c0-10.222-8.349-18.538-18.538-18.538zm48.351 421.818V44.544c0-11.326-9.198-20.543-20.519-20.543H100.146c-11.321 0-20.519 9.217-20.519 20.543v422.917c0 11.321 9.198 20.543 20.519 20.543h311.707c11.321 0 20.52-9.222 20.52-20.543zM411.853 8H100.146c-20.142 0-36.51 16.397-36.51 36.544v422.917c0 20.151 16.368 36.539 36.51 36.539h311.707c20.142 0 36.51-16.387 36.51-36.539V44.544C448.364 24.397 431.995 8 411.853 8z" clip-rule="evenodd"></path>
</svg>
